<svg xmlns="http://www.w3.org/2000/svg" fill="none" viewBox="0 0 167 47"><path fill="#1D1D1D" d="M2 39V22h4v14h7v3H2Zm20 0-4-1a6 6 0 0 1-3-5v-3l2-2 2-1a7 7 0 0 1 5 0l2 1 1 2v3H17v-2h8l-1 1v-2l-1-1h-3l-1 2-1 1 1 2 1 2h4l1-1 2 2a7 7 0 0 1-3 2h-2Zm9 0V23h4v16h-4Zm-2-10v-3h8v3h-8Zm10-1-1-1 2-1v-2l-1-1v-2h3l1 1v3a5 5 0 0 1-2 3h-2Zm11 11h-3l-2-2 2-2 1 1 2 1h1v-1h1v-1h-1v-1h-2l-2-1-1-1-1-1v-1l1-2 1-1 3-1a7 7 0 0 1 5 2l-2 2-1-1h-1a3 3 0 0 0-2 0h-1a1 1 0 0 0 0 1l1 1h2l2 1 1 1 1 1v1l-1 2-2 2h-2Zm8 0V22h3v17h-3Zm2-7v-3h8v3h-8Zm0-7v-3h9v3h-9Zm18 14-4-1-2-2-1-3 1-4 2-2 4-1 3 1 2 2 1 4a6 6 0 0 1-6 6Zm0-3h1l1-1 1-2-1-2-1-2h-3l-1 2-1 2 1 2 1 1h2Zm15 3-4-1-2-2-1-3 1-4 2-2 4-1 3 1 3 2 1 4a6 6 0 0 1-7 6Zm0-3h2l1-1v-4l-1-2h-4l-1 2v4l1 1h2Zm14 3a6 6 0 0 1-5-3l-1-3 1-4 2-2a5 5 0 0 1 5-1 5 5 0 0 1 2 2l1 1-1 1v-9h3v18h-3v-3h1l-1 1-1 1a5 5 0 0 1-3 1Zm1-3h2l1-1v-4a3 3 0 0 0-6 0v4l1 1h2Z"/><path stroke="#FAA41A" stroke-linecap="round" stroke-linejoin="round" d="M139 11a2 2 0 0 0 0-4m0 7a2 2 0 0 1 0-3m0 7a2 2 0 0 0 0-4m7-3a2 2 0 0 0 0-4m0 7a2 2 0 0 1 0-3m0 7a2 2 0 0 0 0-4m-14-3a2 2 0 0 0 0-4m0 7a2 2 0 0 1 0-3m0 7a2 2 0 0 0 0-4"/><path stroke="#383747" stroke-linecap="round" stroke-linejoin="round" d="M133 40h13v-5l-6 2-7-1v4Z"/><path fill="#FAA41A" stroke="#383747" stroke-linecap="round" stroke-linejoin="round" d="M156 24a17 17 0 0 1-33 0h33Z"/><path stroke="#383747" stroke-linecap="round" stroke-linejoin="round" d="M123 21h33v3h-33v-3Z"/><path stroke="#383747" stroke-linecap="round" stroke-linejoin="round" d="M144 21c12 1 9-8 18-8h2c-1-1-4-3-6-2-2 0-3 1-5 4-3 6-5 6-8 6h-1Z"/><path stroke="#fff" stroke-linecap="round" stroke-linejoin="round" d="M152 27c-1 3-4 5-8 6"/></svg>